<svg xmlns="http://www.w3.org/2000/svg" width="46.218" height="46.218" viewBox="0 0 46.218 46.218">
  <g id="Group_5" data-name="Group 5" transform="translate(-1050 -385)">
    <g id="Group_3" data-name="Group 3">
      <g id="email" transform="translate(1044.447 379.447)">
        <path id="Path_22" data-name="Path 22" d="M28.662,5.553A23.109,23.109,0,1,0,51.771,28.662,23.109,23.109,0,0,0,28.662,5.553Zm0,44.834A21.725,21.725,0,1,1,50.387,28.662,21.725,21.725,0,0,1,28.662,50.387Z" fill="#76a578"/>
      </g>
      <path id="Union_2" data-name="Union 2" d="M14,28a13.907,13.907,0,0,1-5.13-.969l-.005,0-.042-.017-.05-.02,0,0a14.044,14.044,0,0,1-5.953-4.566l-.029-.038-.01-.013A13.9,13.9,0,0,1,.943,19.062l-.006-.015L.919,19A13.965,13.965,0,0,1,0,14q0-.04,0-.08V13.9q0-.036,0-.071V13.8c0-.018,0-.036,0-.055s0-.029,0-.043v-.02A14,14,0,0,1,12.781.052h0l.1-.009H12.9l.05,0h.02l.084-.006h.022l.047,0,.027,0,.074,0,.032,0,.042,0,.039,0,.062,0h.035l.04,0,.062,0h.112l.069,0H14.3l.087,0h0a13.941,13.941,0,0,1,5.02,1.079l.01,0,.206.088c.209.092.417.188.621.291l.019.009c.1.05.2.1.3.157q.459.244.9.522c.115.073.229.147.342.222l.212.147q.424.3.827.626.1.083.2.168a14.081,14.081,0,0,1,1.985,2.066l.022.028.012.016a13.888,13.888,0,0,1,2.754,6.341q.049.309.085.623l0,.015.007.059.006.06v.008q.054.517.07,1.044v.007c0,.042,0,.085,0,.126v.009c0,.012,0,.025,0,.037s0,.03,0,.045,0,.023,0,.035,0,.036,0,.054,0,.018,0,.026q0,.041,0,.082c0,.031,0,.063,0,.094,0,.01,0,.02,0,.03s0,.045,0,.066,0,.019,0,.029,0,.045,0,.067v.028c0,.023,0,.046,0,.069v.025c0,.024,0,.049,0,.072V14.5c0,.025,0,.05,0,.075v.02c0,.026,0,.051,0,.077v.017c0,.027,0,.053,0,.08v.016c0,.028,0,.056,0,.084v.011c0,.031,0,.061-.006.091v0q-.02.291-.052.579h0l0,.024a13.937,13.937,0,0,1-.423,2.181l-.008.028-.016.058-.014.049-.01.034-.018.062,0,.014a13.916,13.916,0,0,1-1.991,4.084c-.2.276-.4.545-.618.808a14.074,14.074,0,0,1-1.382,1.452l-.02.019-.047.042-.031.027-.044.039-.065.057-.027.023-.057.05-.02.017a13.936,13.936,0,0,1-8.323,3.352c-.229.013-.461.02-.693.022H14ZM8.925,25.957A12.9,12.9,0,0,0,14,26.986c.139,0,.278,0,.417-.007,0-.194,0-.388.008-.578a3.72,3.72,0,0,0-.068-1.117,2.872,2.872,0,0,0-.6-.994,10.708,10.708,0,0,0-2.264-2.041l-.023-.015a2.307,2.307,0,0,1-1.193-1.451,2.164,2.164,0,0,1,.143-1.011,1.392,1.392,0,0,0,.108-.546,1.36,1.36,0,0,0-.14-.365c-.094-.192-.187-.385-.281-.579a4.729,4.729,0,0,1-.321-.785c-.382.123-.772.234-1.165.331a2.28,2.28,0,0,1-1.729-.094,2.489,2.489,0,0,1-.7-.7c-.166-.221-.308-.41-.456-.441-.19-.04-.5.18-.666.3l-.082.058q-.518.369-1.038.734a3.121,3.121,0,0,1-.905.493,1.862,1.862,0,0,1-1.387-.134,12.943,12.943,0,0,0,3.26,5.238.51.51,0,0,1,.076.094A12.97,12.97,0,0,0,8.8,25.922.511.511,0,0,1,8.925,25.957Zm1.591-9.545a.508.508,0,0,1,.2.443,2.07,2.07,0,0,0,.3.986l.281.579a2.219,2.219,0,0,1,.233.67,2.194,2.194,0,0,1-.147.993,1.387,1.387,0,0,0-.107.551c.041.281.42.536.755.76l.023.015a11.622,11.622,0,0,1,2.476,2.235,3.841,3.841,0,0,1,.8,1.364,4.526,4.526,0,0,1,.107,1.43c-.005.163-.011.322-.009.473l.037,0c.094-.01.188-.022.283-.035l.072-.009c.1-.014.207-.03.311-.047l.07-.013c.093-.016.185-.032.279-.05l.05-.01c.1-.02.207-.042.31-.065l.075-.017c.105-.024.211-.05.315-.076l.007,0c.1-.026.205-.054.308-.083l.071-.021c.1-.029.2-.06.306-.092l.047-.015.275-.092.039-.014a10.185,10.185,0,0,0,.1-1.569c0-.086,0-.175-.006-.262a5.925,5.925,0,0,1,.049-1.169,5.847,5.847,0,0,1,.663-1.7c.115-.223.224-.433.319-.646a2,2,0,0,0,.065-1.819,2.546,2.546,0,0,0-1.185-.7c-.152-.059-.311-.12-.464-.186A11.3,11.3,0,0,1,15.9,17.054a5.36,5.36,0,0,0-2.891-1.3h-.036a.522.522,0,0,1-.382-.166.5.5,0,0,1-.13-.4A2.134,2.134,0,0,0,12.32,13.8a2.1,2.1,0,0,0-.412-.388L11.9,13.4a3.393,3.393,0,0,1-1.615-2.575A3.515,3.515,0,0,1,10.6,9.61a2.439,2.439,0,0,0,.24-.919,2.63,2.63,0,0,0-.418-1.063,2.616,2.616,0,0,1-.476-1.916,2.686,2.686,0,0,1,.829-1.233c.077-.077.151-.152.22-.226a11.165,11.165,0,0,0,.912-3.07A12.853,12.853,0,0,0,8.6,2.192l-.078.037c-.176.083-.351.17-.523.259-.112.059-.221.119-.331.18-.074.042-.147.084-.22.127a12.759,12.759,0,0,0-1.075.7l-.019.013A13.1,13.1,0,0,0,2.739,7.548c-.1.167-.188.334-.276.5A13.034,13.034,0,0,0,1.87,9.372q-.155.406-.284.824-.086.278-.159.562c-.05.19-.095.38-.135.572s-.076.385-.109.58A12.943,12.943,0,0,0,1.013,14c0,.11,0,.22,0,.33,0,.036,0,.072,0,.109q0,.111.008.221l.008.129c0,.068.008.135.013.2,0,.046.008.091.012.136.005.065.011.13.018.194,0,.047.01.093.015.139.007.063.014.126.023.189.005.046.011.094.018.139.008.063.018.126.027.189l.022.138c.011.063.023.126.033.189.007.045.015.091.024.136,0,.013.005.025.007.038a.583.583,0,0,1,.058.031,2.586,2.586,0,0,1,.488.377,2.228,2.228,0,0,0,.252.211.848.848,0,0,0,.7.106,2.244,2.244,0,0,0,.61-.349L4.4,16.121l.082-.058A1.911,1.911,0,0,1,5.939,15.6,1.831,1.831,0,0,1,7,16.423a1.707,1.707,0,0,0,.405.437,1.443,1.443,0,0,0,.972-.015,15.8,15.8,0,0,0,1.659-.506.5.5,0,0,1,.173-.031A.51.51,0,0,1,10.517,16.412ZM12.965,1.057c-.192.923-.723,3.342-1.229,3.887-.081.088-.165.172-.246.253a1.907,1.907,0,0,0-.56.758,1.81,1.81,0,0,0,.378,1.182,3.448,3.448,0,0,1,.544,1.516,3.248,3.248,0,0,1-.311,1.332,2.656,2.656,0,0,0-.243.869c-.015.67.615,1.265,1.234,1.759l.008.007a2.953,2.953,0,0,1,.608.595,2.467,2.467,0,0,1,.368,1.562,7.1,7.1,0,0,1,2.966,1.446,10.357,10.357,0,0,0,1.746,1.06c.135.059.275.113.425.17A3.346,3.346,0,0,1,20.3,18.5a2.832,2.832,0,0,1,.041,2.823c-.107.242-.229.476-.345.7a4.979,4.979,0,0,0-.564,1.409,5.048,5.048,0,0,0-.034.972l.005.274a10.99,10.99,0,0,1-.046,1.154A13.015,13.015,0,0,0,23.819,22.5l-.337-.725a5.649,5.649,0,0,1-.472-1.288,2.244,2.244,0,0,1,.216-1.572,3.236,3.236,0,0,1,.306-.418,1.185,1.185,0,0,0,.26-.4,1.171,1.171,0,0,0-.136-.557,2.353,2.353,0,0,1-.218-.895,2.061,2.061,0,0,1,.909-1.553,1.363,1.363,0,0,1,.829-.36,1.443,1.443,0,0,1,.466.085l.024.008a4.49,4.49,0,0,0,1.279.193c.026-.335.041-.673.041-1.012a13.182,13.182,0,0,0-.125-1.808.189.189,0,0,0-.06-.016,1.048,1.048,0,0,0-.186.16,2.324,2.324,0,0,1-.3.258,1.493,1.493,0,0,1-.854.254,1.961,1.961,0,0,1-.743-.152,4.2,4.2,0,0,1-.935-.585c-.049-.038-.1-.075-.148-.112-.267-.2-.415-.216-.44-.209a.843.843,0,0,0-.093.1,1.345,1.345,0,0,1-.366.332,1.216,1.216,0,0,1-.648.14,2.336,2.336,0,0,1-1.445-.56,4.3,4.3,0,0,1-.346-.344c-.082-.088-.158-.172-.237-.241a.529.529,0,0,0-.339-.167.942.942,0,0,0-.153.044,2.3,2.3,0,0,1-.256.072,1.355,1.355,0,0,1-1.557-1.006,2.073,2.073,0,0,1,.062-.976,1.364,1.364,0,0,0,.063-.511,1.335,1.335,0,0,0-.238-.427l-.063-.089q-.58-.821-1.163-1.64a2.264,2.264,0,0,1-.369-.691,2.047,2.047,0,0,1-.062-.606,16.386,16.386,0,0,1,.242-2.311c.089-.576.172-1.126.21-1.673A13.145,13.145,0,0,0,14,1.017C13.655,1.017,13.308,1.031,12.965,1.057Zm12.02,14.819c-.351.284-.53.544-.532.769a1.589,1.589,0,0,0,.147.517,1.964,1.964,0,0,1,.186,1.135,1.959,1.959,0,0,1-.472.842,2.318,2.318,0,0,0-.212.284,1.237,1.237,0,0,0-.1.864,4.79,4.79,0,0,0,.4,1.057l.122.265.023-.031c.067-.091.13-.183.194-.275a.226.226,0,0,0,.018-.026c.059-.088.118-.176.175-.266l.035-.054c.059-.093.117-.186.174-.281l.035-.059c.057-.094.112-.19.165-.285l.007-.012c.055-.1.108-.2.16-.3l.033-.063c.05-.1.1-.2.148-.3.009-.017.016-.035.025-.052.044-.093.087-.186.13-.28.006-.014.014-.028.019-.041.045-.1.088-.2.13-.3.009-.023.019-.046.028-.069.042-.1.083-.205.122-.308,0-.013.01-.027.015-.04.035-.1.07-.192.1-.289.007-.02.015-.04.022-.059.035-.1.069-.207.1-.311l.022-.069c.033-.106.065-.213.1-.321l0-.011c.029-.106.058-.212.085-.319.006-.023.012-.047.018-.071.026-.105.05-.212.074-.319l.014-.065c.022-.1.042-.2.061-.3a.364.364,0,0,1,.008-.043c.02-.109.038-.217.056-.327,0-.014,0-.027.006-.04a5.5,5.5,0,0,1-1.461-.237l-.027-.009a.884.884,0,0,0-.148-.039A.618.618,0,0,0,24.985,15.875Zm-.741-4.687.155.117a3.424,3.424,0,0,0,.707.455.7.7,0,0,0,.634,0,1.5,1.5,0,0,0,.167-.149,1.373,1.373,0,0,1,.712-.433c.021,0,.041-.007.059-.009,0-.01,0-.019-.006-.028-.031-.135-.062-.268-.1-.4a.011.011,0,0,1,0-.005c-.035-.134-.072-.266-.112-.4,0-.014-.008-.029-.013-.043-.038-.126-.077-.25-.119-.374-.006-.02-.014-.04-.02-.058-.041-.122-.085-.243-.13-.364l-.022-.059c-.046-.12-.094-.24-.142-.36C26.009,9.064,26,9.048,26,9.031c-.051-.123-.1-.246-.159-.366l-.011-.023c-.057-.124-.115-.247-.176-.369,0-.005,0-.011-.007-.015q-.09-.18-.186-.358c-.008-.013-.015-.028-.023-.041-.061-.113-.125-.227-.19-.339-.011-.016-.02-.033-.03-.05-.066-.111-.132-.22-.2-.329l-.03-.049c-.071-.111-.141-.219-.214-.327l-.024-.036c-.076-.113-.154-.223-.234-.332a.032.032,0,0,1,0-.007q-.121-.166-.248-.329a.166.166,0,0,1-.015-.02c-.082-.1-.167-.208-.251-.311l-.031-.038q-.124-.148-.253-.293l-.039-.042q-.128-.144-.262-.284l-.037-.039c-.091-.095-.183-.189-.276-.281l-.025-.023q-.294-.29-.608-.561l-.025-.022c-.1-.086-.2-.17-.3-.253L22.09,3.86c-.1-.081-.2-.16-.305-.238l-.047-.034q-.155-.116-.313-.228c-.013-.011-.028-.02-.041-.029q-.163-.115-.33-.223l-.023-.014c-.115-.075-.232-.148-.35-.22l-.006,0c-.117-.07-.234-.139-.353-.205l-.039-.022c-.113-.064-.228-.125-.344-.185l-.053-.028c-.113-.059-.229-.116-.346-.171l-.055-.026c-.118-.055-.236-.109-.356-.161l-.046-.019C18.96,2,18.836,1.948,18.71,1.9l-.019-.007c-.126-.049-.255-.1-.382-.142l-.027-.009c-.126-.044-.253-.086-.382-.127L17.847,1.6c-.124-.04-.248-.076-.374-.111l-.033-.009c-.046.539-.128,1.073-.208,1.595A15.308,15.308,0,0,0,17,5.242a1.22,1.22,0,0,0,.023.316,1.474,1.474,0,0,0,.221.382l1.163,1.64.062.088a2.135,2.135,0,0,1,.4.814,2.182,2.182,0,0,1-.068.946,1.336,1.336,0,0,0-.06.517.349.349,0,0,0,.368.238c.033-.007.082-.023.134-.041a1.712,1.712,0,0,1,.356-.089,1.47,1.47,0,0,1,1.131.415,4.33,4.33,0,0,1,.308.31,3.115,3.115,0,0,0,.26.262,1.342,1.342,0,0,0,.816.316.433.433,0,0,0,.114-.007c.02-.017.061-.067.09-.1a1.376,1.376,0,0,1,.324-.308,1.023,1.023,0,0,1,.558-.161A1.748,1.748,0,0,1,24.244,11.188Z" transform="translate(1059 394)" fill="#76a578" stroke="#76a578" stroke-width="0.2"/>
    </g>
  </g>
</svg>
