<svg xmlns="http://www.w3.org/2000/svg" width="46.218" height="46.218" viewBox="0 0 46.218 46.218">
  <g id="Group_906" data-name="Group 906" transform="translate(-1454 -27)">
    <g id="email" transform="translate(1448.447 21.447)">
      <path id="Path_22" data-name="Path 22" d="M28.662,5.553A23.109,23.109,0,1,0,51.771,28.662,23.109,23.109,0,0,0,28.662,5.553Zm0,44.834A21.725,21.725,0,1,1,50.387,28.662,21.725,21.725,0,0,1,28.662,50.387Z" transform="translate(0)" fill="#76a578"/>
    </g>
    <g id="Group_899" data-name="Group 899" transform="translate(1464 36)">
      <g id="Group_900" data-name="Group 900" transform="translate(0 0)">
        <path id="Path_22131" data-name="Path 22131" d="M20.627,24.609c-.971,0-1.943.007-2.914-.006-.219,0-.29.07-.332.277a4.522,4.522,0,0,1-8.86,0c-.048-.234-.149-.277-.363-.277q-2.838.011-5.676,0A2.351,2.351,0,0,1,.059,22.726a2.284,2.284,0,0,1,.865-2.374c.314-.255.639-.5.97-.729a2.194,2.194,0,0,0,.913-1.543c.436-2.694.843-5.393,1.34-8.076A8.72,8.72,0,0,1,9.98,3.1c.276-.106.381-.208.387-.518A2.582,2.582,0,0,1,15.4,1.774a3.388,3.388,0,0,1,.135.924.332.332,0,0,0,.271.358,8.723,8.723,0,0,1,5.85,6.475c.348,1.451.516,2.945.763,4.42.243,1.455.481,2.912.725,4.367a1.849,1.849,0,0,0,.72,1.19c.336.26.68.51,1.017.767a2.381,2.381,0,0,1-1.434,4.332c-.941.007-1.882,0-2.823,0M12.951,23.3v-.01q1.973,0,3.945,0,3.278,0,6.556.008a1.065,1.065,0,0,0,1.1-.738,1.081,1.081,0,0,0-.443-1.25c-.352-.272-.714-.532-1.063-.807a3.1,3.1,0,0,1-1.173-1.957c-.188-1.085-.363-2.173-.543-3.26-.292-1.765-.539-3.539-.886-5.293a7.578,7.578,0,0,0-9.261-5.9A7.207,7.207,0,0,0,5.509,9.854c-.575,2.643-.951,5.332-1.346,8.011A3.994,3.994,0,0,1,2.354,20.9a5.532,5.532,0,0,0-.7.534,1,1,0,0,0-.336,1.014,1.015,1.015,0,0,0,.741.806,1.966,1.966,0,0,0,.54.048q5.175,0,10.349,0m3.144,1.327H9.807a3.212,3.212,0,0,0,6.288,0M14.235,2.616a1.211,1.211,0,0,0-.661-1.163,1.224,1.224,0,0,0-1.4.1,1.171,1.171,0,0,0-.505,1.065Z" transform="translate(0 0)" fill="#76a578"/>
      </g>
    </g>
  </g>
</svg>
